# xmcd CD database file
#
# Track frame offsets:
#	150
#	23081
#	55745
#	70859
#	87731
#	103877
#	130812
#	167511
#	189000
#	204947
#	239366
#	255318
#	277095
#
# Disc length: 4104 seconds
#
# Revision: 0
# Processed by: cddbd v1.5.2PL0 Copyright (c) Steve Scherf et al.
# Submitted via: CDex 1.70beta2
#
DISCID=ad10060d
DTITLE=Various Artist - Jazz Roads CD164 - Swing - Ben Webster Vol.6 (1956-57)
DYEAR=2006
DGENRE=Jazz
TTITLE0=Harry Edison - Opus 711
TTITLE1=Harry Edison - Walkin' With Sweets
TTITLE2=Harry Edison - Love Is Here To Stay
TTITLE3=Harry Edison - How Deep Is The Ocean
TTITLE4=Harry Edison - Hollering At Watkins
TTITLE5=Harry Edison - Used To Be Basie
TTITLE6=Harry Edison - Studio Call
TTITLE7=Harry Edison - Willow Weep For Me
TTITLE8=Harry Edison - K.M. Blues
TTITLE9=Harry Edison and Ben Webster - Blues For Piney Brown
TTITLE10=Harry Edison and Ben Webster - Gee Baby, Ain't I Good To You
TTITLE11=Harry Edison and Ben Webster - Blues For The Blues
TTITLE12=Harry Edison and Ben Webster - You're Getting To Be A Habit With Me
EXTD=YEAR: 2006
EXTT0=
EXTT1=
EXTT2=
EXTT3=
EXTT4=
EXTT5=
EXTT6=
EXTT7=
EXTT8=
EXTT9=
EXTT10=
EXTT11=
EXTT12=
PLAYORDER=
